<svg width="61" height="61" viewBox="0 0 61 61" fill="none" xmlns="http://www.w3.org/2000/svg">
<rect x="1.27209" y="0.938965" width="58.9986" height="59" rx="15.5" fill="white" stroke="#E0E0E0"/>
<path d="M18.2963 18.1209C16.0551 20.4489 16.5138 22.9218 16.5138 30.4345C16.5138 36.6733 15.4253 42.9275 21.1222 44.3999C22.9011 44.8574 38.6633 44.8574 40.4399 44.3975C42.8118 43.7855 44.7417 41.8616 45.0055 38.5069C45.0423 38.0387 45.0423 22.8386 45.0043 22.3609C44.7238 18.7876 42.5242 16.7282 39.6259 16.3111C38.9616 16.2148 38.8285 16.1863 35.4203 16.1804C23.3313 16.1863 20.6813 15.648 18.2963 18.1209Z" fill="url(#paint0_linear_148_139)"/>
<path d="M30.7715 19.9103C26.4567 19.9103 22.3593 19.5265 20.7942 23.5431C20.1478 25.202 20.2416 27.3565 20.2416 30.4414C20.2416 33.1484 20.1549 35.6927 20.7942 37.3385C22.3557 41.3575 26.4864 40.9725 30.7691 40.9725C34.901 40.9725 39.1612 41.4026 40.7453 37.3385C41.3929 35.663 41.2978 33.5406 41.2978 30.4414C41.2978 26.3274 41.5248 23.6714 39.5296 21.6774C37.5094 19.6572 34.7774 19.9103 30.7668 19.9103H30.7715ZM29.828 21.8081C38.8285 21.7938 39.974 20.7932 39.3418 34.6933C39.1172 39.6094 35.374 39.0699 30.7727 39.0699C22.383 39.0699 22.1418 38.8299 22.1418 30.4366C22.1418 21.9459 22.8073 21.8128 29.828 21.8057V21.8081ZM36.3924 23.5561C35.6948 23.5561 35.1292 24.1218 35.1292 24.8193C35.1292 25.5169 35.6948 26.0826 36.3924 26.0826C37.0899 26.0826 37.6556 25.5169 37.6556 24.8193C37.6556 24.1218 37.0899 23.5561 36.3924 23.5561ZM30.7715 25.0332C27.7852 25.0332 25.3646 27.4551 25.3646 30.4414C25.3646 33.4277 27.7852 35.8483 30.7715 35.8483C33.7578 35.8483 36.1773 33.4277 36.1773 30.4414C36.1773 27.4551 33.7578 25.0332 30.7715 25.0332ZM30.7715 26.931C35.412 26.931 35.4179 33.9517 30.7715 33.9517C26.1322 33.9517 26.1251 26.931 30.7715 26.931Z" fill="white"/>
<defs>
<linearGradient id="paint0_linear_148_139" x1="18.351" y1="42.8789" x2="44.8575" y2="19.9379" gradientUnits="userSpaceOnUse">
<stop stop-color="#FFDD55"/>
<stop offset="0.5" stop-color="#FF543E"/>
<stop offset="1" stop-color="#C837AB"/>
</linearGradient>
</defs>
</svg>
