<svg width="61" height="61" viewBox="0 0 61 61" fill="none" xmlns="http://www.w3.org/2000/svg">
<rect x="0.900757" y="0.938965" width="58.9986" height="59" rx="15.5" fill="white" stroke="#E0E0E0"/>
<path d="M43.6889 22.198C42.7005 22.6316 41.6474 22.919 40.5494 23.0585C41.6789 22.3841 42.541 21.3243 42.9464 20.0469C41.8932 20.6748 40.7304 21.1183 39.4913 21.3658C38.4913 20.3011 37.066 19.6416 35.5112 19.6416C32.4947 19.6416 30.0662 22.0901 30.0662 25.0917C30.0662 25.5236 30.1027 25.9388 30.1924 26.3342C25.6626 26.1133 21.6543 23.9422 18.9617 20.6349C18.4916 21.4505 18.2158 22.3841 18.2158 23.3891C18.2158 25.2761 19.1876 26.9488 20.6361 27.9172C19.7607 27.9006 18.9019 27.6465 18.1743 27.2461C18.1743 27.2627 18.1743 27.2843 18.1743 27.3059C18.1743 29.9537 20.063 32.153 22.5397 32.6597C22.0962 32.7809 21.6128 32.8391 21.1111 32.8391C20.7623 32.8391 20.4102 32.8191 20.0796 32.746C20.7856 34.9038 22.7889 36.4902 25.1709 36.5417C23.3171 37.9918 20.9633 38.8656 18.4152 38.8656C17.9683 38.8656 17.5398 38.8456 17.1112 38.7908C19.5248 40.3473 22.3852 41.2359 25.4699 41.2359C35.4963 41.2359 40.9779 32.9304 40.9779 25.7312C40.9779 25.4903 40.9696 25.2578 40.958 25.0269C42.0394 24.2595 42.948 23.301 43.6889 22.198Z" fill="#03A9F4"/>
</svg>
