<svg width="2403" height="1148" viewBox="0 0 2403 1148" fill="none" xmlns="http://www.w3.org/2000/svg">
<g clip-path="url(#clip0_1_18)">
<g clip-path="url(#clip1_1_18)">
<path d="M2489.49 957.25C2488.81 948.84 2459.9 933.97 2349.68 941.74C2211.91 951.46 2191.32 1161 2003.39 1108.58C1815.47 1056.16 1949.3 739.46 1753.21 620.35C1557.12 501.24 1449.45 741.91 1307.11 673.49C1164.77 605.08 1193.05 383.24 993.875 303.26C794.695 223.28 649.106 501.84 483.204 442.65C317.302 383.47 299.06 2.5351 68.14 -100.701" stroke="#5360FE" stroke-width="2"/>
<path d="M2845.11 994.37C2841.32 985.08 2797.11 967.13 2650.55 969.62C2467.36 972.74 2510.95 1202.1 2238.66 1134.11C1966.37 1066.12 2039.52 725.1 1733.43 583.31C1427.35 441.51 1363.67 700.33 1147.64 617.25C931.613 534.17 894.231 291.7 597.305 192.77C300.379 93.85 198.298 392.26 -46.484 318.04C-291.266 243.82 -445.895 -176.211 -793.72 -302.462" stroke="#6CE2F8" stroke-width="3"/>
<path d="M1923.77 1073.23C1929.83 1077.98 1938.59 1076.91 1943.33 1070.85C1948.08 1064.79 1947.01 1056.03 1940.95 1051.29C1934.89 1046.54 1926.13 1047.61 1921.39 1053.67C1916.64 1059.73 1917.71 1068.49 1923.77 1073.23Z" fill="#5360FE"/>
<path d="M438.163 196.883C449.613 205.848 466.163 203.834 475.129 192.383C484.094 180.933 482.08 164.383 470.629 155.417C459.179 146.452 442.629 148.466 433.663 159.917C424.698 171.367 426.712 187.917 438.163 196.883Z" fill="#04D7CD"/>
</g>
</g>
<defs>
<clipPath id="clip0_1_18">
<rect width="2403" height="1148" fill="white"/>
</clipPath>
<clipPath id="clip1_1_18">
<rect width="1920" height="2770" fill="white" transform="translate(241 -930)"/>
</clipPath>
</defs>
</svg>
