<svg width="61" height="61" viewBox="0 0 61 61" fill="none" xmlns="http://www.w3.org/2000/svg">
<rect x="1.09143" y="0.938965" width="58.9986" height="59" rx="15.5" fill="white" stroke="#E0E0E0"/>
<path d="M41.0061 31.8024C40.4955 31.1526 40.6416 30.8634 41.0061 30.2826C41.0126 30.2759 45.2272 24.4062 45.6614 22.4156L45.6641 22.4143C45.8799 21.6889 45.6641 21.1558 44.6206 21.1558H41.1679C40.2889 21.1558 39.8837 21.6133 39.6665 22.1252C39.6665 22.1252 37.9086 26.3663 35.4217 29.1155C34.619 29.9099 34.248 30.1645 33.8098 30.1645C33.594 30.1645 33.2585 29.9099 33.2585 29.1845V22.4143C33.2585 21.5443 33.0124 21.1558 32.2848 21.1558H26.8557C26.3043 21.1558 25.9767 21.5616 25.9767 21.9395C25.9767 22.7644 27.2202 22.9541 27.3491 25.2749V30.3104C27.3491 31.4138 27.1504 31.6167 26.7096 31.6167C25.5359 31.6167 22.6871 27.3583 20.9989 22.4846C20.6581 21.539 20.3252 21.1571 19.4397 21.1571H15.9856C15.0001 21.1571 14.8014 21.6146 14.8014 22.1265C14.8014 23.031 15.9751 27.5281 20.2594 33.4694C23.1148 37.5249 27.1359 39.7224 30.7939 39.7224C32.9927 39.7224 33.2611 39.2343 33.2611 38.3949C33.2611 34.5197 33.0624 34.1537 34.1638 34.1537C34.6743 34.1537 35.5533 34.4083 37.606 36.3645C39.9521 38.684 40.3376 39.7224 41.6508 39.7224H45.1035C46.0878 39.7224 46.5865 39.2343 46.2996 38.2715C45.643 36.2464 41.2061 32.0809 41.0061 31.8024Z" fill="#4B729F"/>
</svg>
