<svg width="61" height="61" viewBox="0 0 61 61" fill="none" xmlns="http://www.w3.org/2000/svg">
<rect x="0.564331" y="0.938965" width="58.9986" height="59" rx="15.5" fill="white" stroke="#E0E0E0"/>
<path d="M39.9515 18.4749H20.1756C16.2956 18.4749 13.1502 21.6202 13.1502 25.5002V35.3861C13.1502 39.2661 16.2956 42.4115 20.1756 42.4115H39.9515C43.8315 42.4115 46.9769 39.2661 46.9769 35.3861V25.5002C46.9769 21.6202 43.8315 18.4749 39.9515 18.4749ZM35.2003 30.9241L25.9505 35.3358C25.704 35.4533 25.4193 35.2736 25.4193 35.0006V25.9016C25.4193 25.6247 25.7115 25.4452 25.9585 25.5704L35.2083 30.2577C35.4833 30.3971 35.4786 30.7915 35.2003 30.9241Z" fill="#F61C0D"/>
</svg>
