<svg width="1920" height="1041" viewBox="0 0 1920 1041" fill="none" xmlns="http://www.w3.org/2000/svg">
<path d="M2277.66 3.21116C2271.89 -2.02675 2243.01 6.20895 2173.64 81.0551C2086.93 174.613 2205.38 328.837 2045.63 412.194C1885.87 495.552 1776.05 197.588 1568.67 241.155C1361.3 284.721 1440.72 514.919 1301.59 558.706C1162.45 602.492 1041.41 435.121 856.656 507.01C671.906 578.899 749.711 858.584 600.523 923.471C451.334 988.358 198.46 743.147 -22.3682 819.409" stroke="#5360FE" stroke-width="2"/>
<path d="M2582.57 123.432C2576.89 117.675 2544.22 123.193 2459 191.321C2352.47 276.482 2463.45 441.211 2278.08 509.403C2092.72 577.596 2008.82 270.423 1776.12 294.526C1543.43 318.628 1602.31 555.435 1444.4 586.113C1286.5 616.791 1174.29 438.718 962.937 493.154C751.58 547.589 802.621 833.563 631.108 884.332C459.596 935.101 212.396 667.178 -39.0519 722.611" stroke="#6CE2F8" stroke-width="3"/>
<circle cx="0.000541687" cy="187.543" r="38.7202" fill="#5360FE"/>
<circle cx="160.016" cy="734.808" r="23.5806" fill="#04D7CD"/>
<circle cx="727.838" cy="803.889" r="12.8707" fill="#04D7CD"/>
<circle cx="925.442" cy="584.275" r="12.8707" fill="#04D7CD"/>
<circle cx="1799.54" cy="190.539" r="41.7156" fill="#5360FE"/>
</svg>
